# xmcd
#
# Track frame offsets:
#	150
#	18580
#	35048
#	51238
#	67267
#	87395
#	103333
#	117101
#	131152
#	153371
#	168973
#	187109
#	209451
#	227360
#	242543
#	257480
#	271151
#	287987
#
# Disc length: 4078 seconds
#
# Revision: 2
# Processed by: cddbd v1.5.2PL0 Copyright (c) Steve Scherf et al.
# Submitted via: audiograbber 1.83.01
#
DISCID=0a0fec12
DTITLE=Various Artist - Original Country [CD 1)
DYEAR=1900
DGENRE=Country
TTITLE0=Willie Nelson - Whiskey River
TTITLE1=Emmylou Harris With Gram Parsons - Love Hurts
TTITLE2=Dolly Parton, Linda Ronstadt, Emmylou Harris - Wildflowers
TTITLE3=Linda Ronstadt - Desperado
TTITLE4=K D Lang - Constant Craving
TTITLE5=Randy Travis - Forever and Ever, Amen
TTITLE6=Dwight Yoakam - Guitars, Cadillacs
TTITLE7=T G Sheppard - Do You Wanna Go To Heaven
TTITLE8=Vern Godsin - The First Time Ever I Saw Your Face
TTITLE9=Holly Dunn - Daddy's Hands
TTITLE10=Beth Nielsen Chapman - You Hold The Key
TTITLE11=Gram Parsons - A Song For You
TTITLE12=Eddie Rabbit - Kentucky Rain
TTITLE13=Olivia Newton-John - Please Mr Please
TTITLE14=Lila McCann - Crush
TTITLE15=Tracy Lawrence - Time Marches On
TTITLE16=Lucinda Williams - Sidewalks Of The City
TTITLE17=Tom Paxton - Ramblin' Boy
EXTD=
EXTT0=
EXTT1=
EXTT2=
EXTT3=
EXTT4=
EXTT5=
EXTT6=
EXTT7=
EXTT8=
EXTT9=
EXTT10=
EXTT11=
EXTT12=
EXTT13=
EXTT14=
EXTT15=
EXTT16=
EXTT17=
PLAYORDER=
